<svg height="960" viewBox="0 0 1440.5 960" width="1440.5" xmlns="http://www.w3.org/2000/svg" xmlns:xlink="http://www.w3.org/1999/xlink"><clipPath id="a"><path d="m0 0h1399v960h-1399z"/></clipPath><clipPath id="b"><path d="m0 0h1440v900h-1440z"/></clipPath><path d="m0 0h1440v960h-1440z" fill="#efece7"/><g fill="none" stroke="#707070"><g clip-path="url(#a)" transform="translate(16.5)"><path d="m0 0v960" opacity=".24" transform="translate(.5)"/><path d="m0 0v960" opacity=".24" transform="translate(63.5)"/><path d="m0 0v960" opacity=".24" transform="translate(126.5)"/><path d="m0 0v960" opacity=".24" transform="translate(189.5)"/><path d="m0 0v960" opacity=".24" transform="translate(252.5)"/><path d="m0 0v960" opacity=".24" transform="translate(315.5)"/><path d="m0 0v960" opacity=".24" transform="translate(378.5)"/><path d="m0 0v960" opacity=".24" transform="translate(441.5)"/><path d="m0 0v960" opacity=".24" transform="translate(504.5)"/><path d="m0 0v960" opacity=".24" transform="translate(567.5)"/><path d="m0 0v960" opacity=".24" transform="translate(630.5)"/><path d="m0 0v960" opacity=".24" transform="translate(693.5)"/><path d="m0 0v960" opacity=".24" transform="translate(756.5)"/><path d="m0 0v960" opacity=".24" transform="translate(819.5)"/><path d="m0 0v960" opacity=".24" transform="translate(882.5)"/><path d="m0 0v960" opacity=".24" transform="translate(945.5)"/><path d="m0 0v960" opacity=".24" transform="translate(1008.5)"/><path d="m0 0v960" opacity=".24" transform="translate(1071.5)"/><path d="m0 0v960" opacity=".24" transform="translate(1134.5)"/><path d="m0 0v960" opacity=".24" transform="translate(1197.5)"/><path d="m0 0v960" opacity=".24" transform="translate(1260.5)"/><path d="m0 0v960" opacity=".24" transform="translate(1323.5)"/><path d="m0 0v960" opacity=".24" transform="translate(1386.5)"/></g><g clip-path="url(#b)" transform="translate(.5 60)"><path d="m0 0h1440" opacity=".243" transform="translate(0 .5)"/><path d="m0 0h1440" opacity=".243" transform="translate(0 63.5)"/><path d="m0 0h1440" opacity=".243" transform="translate(0 126.5)"/><path d="m0 0h1440" opacity=".243" transform="translate(0 189.5)"/><path d="m0 0h1440" opacity=".243" transform="translate(0 252.5)"/><path d="m0 0h1440" opacity=".243" transform="translate(0 315.5)"/><path d="m0 0h1440" opacity=".243" transform="translate(0 378.5)"/><path d="m0 0h1440" opacity=".243" transform="translate(0 441.5)"/><path d="m0 0h1440" opacity=".243" transform="translate(0 504.5)"/><path d="m0 0h1440" opacity=".243" transform="translate(0 567.5)"/><path d="m0 0h1440" opacity=".243" transform="translate(0 630.5)"/><path d="m0 0h1440" opacity=".243" transform="translate(0 693.5)"/><path d="m0 0h1440" opacity=".243" transform="translate(0 756.5)"/><path d="m0 0h1440" opacity=".243" transform="translate(0 819.5)"/><path d="m0 0h1440" opacity=".243" transform="translate(0 882.5)"/></g></g></svg>